# xmcd
#
# Track frame offsets: 
#        150
#        17550
#        36540
#        49575
#
# Disc length: 947 seconds
#
# Revision: 0
# Processed by: cddbd v1.5.2PL0 Copyright (c) Steve Scherf et al.
# Submitted via: ExactAudioCopyFreeDBPlugin 1.0
#
DISCID=2b03b104
DTITLE=Colin James - If You Lean On Me [CDS)
DYEAR=1991
DGENRE=Blues
TTITLE0=If You Lean On Me (Radio edit)
TTITLE1=Back In My Arms Again
TTITLE2=Stones In My Passway
TTITLE3=If You Lean On Me (Album version)
EXTD=
EXTT0=
EXTT1=
EXTT2=
EXTT3=
PLAYORDER=
